<svg xmlns="http://www.w3.org/2000/svg" version="1.1" xmlns:xlink="http://www.w3.org/1999/xlink" xmlns:svgjs="http://svgjs.dev/svgjs" viewBox="0 0 1422 800" width="1422" height="800" opacity="1"><g transform="scale(1.7) rotate(8) translate(0 -1) skewX(1) skewY(1)" transform-origin="711 400"><rect width="2844" height="1600" x="-711" y="-400" fill="url(#rrreplicate-pattern1)"></rect><rect width="2844" height="1600" x="-711" y="-400" fill="url(#rrreplicate-pattern2)"></rect><rect width="2844" height="1600" x="-711" y="-400" fill="url(#rrreplicate-pattern3)"></rect></g><defs><pattern id="rrreplicate-pattern1" width="480" height="480" patternUnits="userSpaceOnUse" patternTransform="rotate(30)" stroke-width="4" fill="none" stroke="#000000" stroke-opacity="0.1">
      <line x1="40" y1="0" x2="40" y2="480"></line><line x1="120" y1="0" x2="120" y2="480"></line><line x1="200" y1="0" x2="200" y2="480"></line><line x1="280" y1="0" x2="280" y2="480"></line><line x1="360" y1="0" x2="360" y2="480"></line><line x1="440" y1="0" x2="440" y2="480"></line>
      </pattern><pattern id="rrreplicate-pattern2" width="480" height="480" patternUnits="userSpaceOnUse" patternTransform="rotate(30)" stroke-opacity="0.37" stroke-width="2.2" fill="none" stroke="#000000">
      <line x1="48" y1="0" x2="48" y2="480"></line><line x1="144" y1="0" x2="144" y2="480"></line><line x1="240" y1="0" x2="240" y2="480"></line><line x1="336" y1="0" x2="336" y2="480"></line><line x1="432" y1="0" x2="432" y2="480"></line>
      </pattern><pattern id="rrreplicate-pattern3" width="480" height="480" patternUnits="userSpaceOnUse" patternTransform="rotate(115)" stroke-opacity="1" stroke-width="1.2" fill="none" stroke="#ffd100">
      <line x1="60" y1="0" x2="60" y2="480"></line><line x1="180" y1="0" x2="180" y2="480"></line><line x1="300" y1="0" x2="300" y2="480"></line><line x1="420" y1="0" x2="420" y2="480"></line>
      </pattern></defs></svg>